<mxfile host="app.diagrams.net" modified="2023-12-17T11:28:22.467Z" agent="Mozilla/5.0 (Macintosh; Intel Mac OS X 10_15_7) AppleWebKit/537.36 (KHTML, like Gecko) Chrome/118.0.0.0 Safari/537.36" etag="pqb5YN-VEjA9RELZcfP3" version="22.1.11" type="device">
  <diagram name="Page-1" id="O4gHF6bRFl5nwQHUpOs5">
    <mxGraphModel dx="1242" dy="800" grid="1" gridSize="10" guides="1" tooltips="1" connect="1" arrows="1" fold="1" page="1" pageScale="1" pageWidth="827" pageHeight="1169" math="0" shadow="0">
      <root>
        <mxCell id="0" />
        <mxCell id="1" parent="0" />
        <mxCell id="JGlw_p0Wvybs1nge2Pdb-32" style="edgeStyle=orthogonalEdgeStyle;rounded=0;orthogonalLoop=1;jettySize=auto;html=1;entryX=0.5;entryY=0;entryDx=0;entryDy=0;" edge="1" parent="1" source="JGlw_p0Wvybs1nge2Pdb-30" target="JGlw_p0Wvybs1nge2Pdb-31">
          <mxGeometry relative="1" as="geometry" />
        </mxCell>
        <mxCell id="JGlw_p0Wvybs1nge2Pdb-30" value="User Opens a ticket&amp;nbsp;" style="ellipse;whiteSpace=wrap;html=1;fillColor=#e1d5e7;strokeColor=#9673a6;" vertex="1" parent="1">
          <mxGeometry x="310" y="140" width="120" height="80" as="geometry" />
        </mxCell>
        <mxCell id="JGlw_p0Wvybs1nge2Pdb-35" style="edgeStyle=orthogonalEdgeStyle;rounded=0;orthogonalLoop=1;jettySize=auto;html=1;exitX=0.5;exitY=1;exitDx=0;exitDy=0;entryX=0.5;entryY=0;entryDx=0;entryDy=0;" edge="1" parent="1" source="JGlw_p0Wvybs1nge2Pdb-31" target="JGlw_p0Wvybs1nge2Pdb-34">
          <mxGeometry relative="1" as="geometry" />
        </mxCell>
        <mxCell id="JGlw_p0Wvybs1nge2Pdb-31" value="AWS Lex reads the ticket and comes up with a response" style="rounded=0;whiteSpace=wrap;html=1;" vertex="1" parent="1">
          <mxGeometry x="310" y="290" width="120" height="60" as="geometry" />
        </mxCell>
        <mxCell id="JGlw_p0Wvybs1nge2Pdb-39" style="edgeStyle=orthogonalEdgeStyle;rounded=0;orthogonalLoop=1;jettySize=auto;html=1;exitX=0.5;exitY=1;exitDx=0;exitDy=0;" edge="1" parent="1" source="JGlw_p0Wvybs1nge2Pdb-34" target="JGlw_p0Wvybs1nge2Pdb-40">
          <mxGeometry relative="1" as="geometry">
            <mxPoint x="370" y="650" as="targetPoint" />
          </mxGeometry>
        </mxCell>
        <mxCell id="JGlw_p0Wvybs1nge2Pdb-42" value="Yes" style="edgeLabel;html=1;align=center;verticalAlign=middle;resizable=0;points=[];" vertex="1" connectable="0" parent="JGlw_p0Wvybs1nge2Pdb-39">
          <mxGeometry x="-0.16" y="-1" relative="1" as="geometry">
            <mxPoint as="offset" />
          </mxGeometry>
        </mxCell>
        <mxCell id="JGlw_p0Wvybs1nge2Pdb-43" style="edgeStyle=orthogonalEdgeStyle;rounded=0;orthogonalLoop=1;jettySize=auto;html=1;" edge="1" parent="1" source="JGlw_p0Wvybs1nge2Pdb-34" target="JGlw_p0Wvybs1nge2Pdb-45">
          <mxGeometry relative="1" as="geometry">
            <mxPoint x="520" y="475" as="targetPoint" />
          </mxGeometry>
        </mxCell>
        <mxCell id="JGlw_p0Wvybs1nge2Pdb-44" value="No" style="edgeLabel;html=1;align=center;verticalAlign=middle;resizable=0;points=[];" vertex="1" connectable="0" parent="JGlw_p0Wvybs1nge2Pdb-43">
          <mxGeometry x="-0.3263" y="-2" relative="1" as="geometry">
            <mxPoint x="13" y="-2" as="offset" />
          </mxGeometry>
        </mxCell>
        <mxCell id="JGlw_p0Wvybs1nge2Pdb-34" value="Is the user satisfied with the response?" style="rhombus;whiteSpace=wrap;html=1;" vertex="1" parent="1">
          <mxGeometry x="315" y="420" width="110" height="110" as="geometry" />
        </mxCell>
        <mxCell id="JGlw_p0Wvybs1nge2Pdb-40" value="Close the ticket" style="ellipse;whiteSpace=wrap;html=1;fillColor=#d5e8d4;strokeColor=#82b366;" vertex="1" parent="1">
          <mxGeometry x="310" y="630" width="120" height="80" as="geometry" />
        </mxCell>
        <mxCell id="JGlw_p0Wvybs1nge2Pdb-45" value="Connect the user with a human" style="ellipse;whiteSpace=wrap;html=1;fillColor=#f8cecc;strokeColor=#b85450;" vertex="1" parent="1">
          <mxGeometry x="530" y="435" width="120" height="80" as="geometry" />
        </mxCell>
      </root>
    </mxGraphModel>
  </diagram>
</mxfile>
